# xmcd
#
# Track frame offsets:
#	150
#	13900
#	28554
#	38095
#	49562
#	61913
#	72101
#	81059
#	93659
#	105895
#	118813
#	130150
#	142374
#	153288
#	167466
#	178010
#	190165
#	204155
#	218658
#	230648
#
# Disc length: 3215 seconds
# Revision: 1
# Processed by: cddbd v1.5.2PL0 Copyright (c) Steve Scherf et al.
# Submitted via: dBpowerAMP V12.0
#
DISCID=0b0c8d14
DTITLE=Various Artist - R&B Hipshakers Vol. 1 - Teach Me to Monkey
DYEAR=1961
DGENRE=Rhythm and Blues
TTITLE0=Willie Wright and His Sparklers - Gibble Gobble
TTITLE1=Hank Ballard - Broadway
TTITLE2=Lulu Reed - What Makes You So Cold
TTITLE3=Little Willie John - My Nerves
TTITLE4=Lloyd Nolan - I Don't Know About You
TTITLE5=The 5 Royales - The Slummer The Slum
TTITLE6=Little Mummy - Where You At Jack
TTITLE7=The Valentines - That's It Man
TTITLE8=Eugene Church - Mind Your Own Business
TTITLE9=Charles Brown - Regardless
TTITLE10=El Pauling and Royal Abbit - Here It 'Tis Right Here
TTITLE11=Roy Milton and His Orchestra - One Zippy Zam
TTITLE12=Freddie King - Texas Oil
TTITLE13=The Drivers - Mr Astronaut
TTITLE14=Carol Ford - Your Well Ran Dry
TTITLE15=Little Bobby Moore - Do The Ginger Snap
TTITLE16=Little Emmett Sutton - Mom, Won't You Teach Me to Monkey
TTITLE17=Willie Dixon and The Big Wheels - Uncle Willie's Got A Thing Going on
TTITLE18=Johnny "Guitar" Watson - Posin'
TTITLE19=Eddie Kirk - Hog Killin' Time
EXTD=
EXTT0=
EXTT1=
EXTT2=
EXTT3=
EXTT4=
EXTT5=
EXTT6=
EXTT7=
EXTT8=
EXTT9=
EXTT10=
EXTT11=
EXTT12=
EXTT13=
EXTT14=
EXTT15=
EXTT16=
EXTT17=
EXTT18=
EXTT19=
PLAYORDER=
